<?xml version="1.0" standalone="no"?>
<!DOCTYPE svg PUBLIC "-//W3C//DTD SVG 20010904//EN"
 "http://www.w3.org/TR/2001/REC-SVG-20010904/DTD/svg10.dtd">
<svg version="1.0" xmlns="http://www.w3.org/2000/svg"
 width="595.000000pt" height="842.000000pt" viewBox="0 0 595.000000 842.000000"
 preserveAspectRatio="xMidYMid meet">

<g transform="translate(0.000000,842.000000) scale(0.100000,-0.100000)"
fill="#000000" stroke="none">
<path d="M2740 5289 c-278 -37 -522 -68 -542 -69 -33 0 -38 -3 -38 -24 0 -48
7 -53 70 -48 l60 4 0 -30 c0 -16 3 -43 6 -59 6 -30 6 -30 -53 -39 l-59 -9 76
-575 76 -575 322 -3 322 -2 0 30 c0 28 -2 30 -40 30 l-40 0 0 65 0 65 50 0
c28 0 50 1 50 3 0 1 15 112 34 246 l32 244 -330 -6 -331 -6 384 34 c211 19
386 37 389 39 4 5 111 716 112 744 0 16 20 18 -550 -59z m470 -71 c5 -56 5
-57 -24 -62 -16 -3 -46 -6 -67 -6 -34 0 -39 3 -39 23 0 12 -3 39 -6 59 -6 36
-6 37 32 41 22 2 53 4 69 3 29 -1 30 -3 35 -58z m-181 -49 l1 -36 -62 -6 c-35
-3 -64 -4 -66 -2 -2 2 -6 31 -9 64 l-6 60 64 3 c61 3 64 2 70 -22 4 -14 7 -41
8 -61z m-189 -8 l0 -58 -37 -7 c-21 -3 -50 -6 -65 -6 -26 0 -28 3 -28 44 0 24
-3 51 -6 59 -7 18 12 24 84 26 l52 1 0 -59z m-190 -31 c0 -52 -3 -60 -19 -60
-10 0 -38 -3 -63 -6 l-45 -6 -6 58 c-7 70 -3 74 76 74 l57 0 0 -60z m-180 -19
l0 -58 -46 -7 c-87 -12 -84 -14 -84 59 l0 65 65 0 65 0 0 -59z m5 -1126 l0
-60 -65 0 -65 0 -3 49 c-5 74 -2 77 70 74 l63 -3 0 -60z m183 -7 l3 -58 -71 0
-70 0 0 60 0 61 68 -3 67 -3 3 -57z m192 2 l0 -60 -65 0 -65 0 0 60 0 60 65 0
65 0 0 -60z"/>
<path d="M1860 3460 l0 -230 45 0 45 0 0 90 0 90 80 0 80 0 0 45 0 45 -80 0
-80 0 0 45 0 44 93 3 92 3 0 45 0 45 -137 3 -138 3 0 -231z"/>
<path d="M2174 3676 c-3 -8 -4 -84 -2 -168 3 -131 6 -159 24 -193 66 -127 246
-124 312 5 21 42 22 56 20 205 l-3 160 -45 0 -45 0 -5 -165 c-3 -91 -8 -170
-12 -176 -4 -6 -21 -17 -38 -24 -37 -15 -81 0 -99 33 -6 13 -12 86 -13 177
l-3 155 -43 3 c-30 2 -44 -1 -48 -12z"/>
<path d="M2600 3461 l0 -231 45 0 45 0 0 127 0 127 128 -127 c71 -70 132 -127
135 -127 4 0 7 104 7 230 l0 230 -45 0 -44 0 -3 -127 -3 -126 -132 127 -133
128 0 -231z"/>
<path d="M3040 3460 l0 -230 45 0 45 0 0 90 0 90 80 0 80 0 0 45 0 45 -80 0
-80 0 0 45 0 45 90 0 90 0 0 50 0 50 -135 0 -135 0 0 -230z"/>
<path d="M3360 3460 l0 -230 135 0 135 0 0 45 0 45 -90 0 -90 0 0 185 0 185
-45 0 -45 0 0 -230z"/>
<path d="M3680 3460 l0 -230 45 0 45 0 0 230 0 230 -45 0 -45 0 0 -230z"/>
<path d="M3820 3684 c0 -3 27 -52 60 -108 33 -57 60 -107 60 -112 0 -5 -15
-34 -33 -64 -18 -30 -48 -81 -66 -112 l-32 -58 53 0 53 0 40 75 c45 85 42 85
97 -17 l31 -58 54 0 55 0 -20 33 c-11 17 -34 57 -52 87 -18 30 -40 69 -51 86
l-18 30 64 108 c36 59 65 110 65 112 0 3 -24 4 -52 2 l-53 -3 -34 -62 c-19
-35 -38 -63 -42 -63 -4 0 -24 29 -44 65 l-36 65 -49 0 c-28 0 -50 -3 -50 -6z"/>
</g>
</svg>
