<?xml version="1.0" standalone="no"?>
<!DOCTYPE svg PUBLIC "-//W3C//DTD SVG 20010904//EN"
 "http://www.w3.org/TR/2001/REC-SVG-20010904/DTD/svg10.dtd">
<svg version="1.0" xmlns="http://www.w3.org/2000/svg"
 width="576.000000pt" height="288.000000pt" viewBox="0 0 576.000000 288.000000"
 preserveAspectRatio="xMidYMid meet">

<g transform="translate(0.000000,288.000000) scale(0.100000,-0.100000)"
fill="#000000" stroke="none">
<path d="M2740 1569 c-278 -37 -520 -68 -538 -68 -36 -1 -48 -17 -38 -54 5
-22 9 -23 66 -19 l60 4 0 -30 c0 -16 3 -43 6 -59 6 -30 6 -30 -53 -39 l-59 -9
75 -575 76 -575 323 -3 322 -2 0 30 c0 28 -2 30 -40 30 l-40 0 0 65 0 65 49 0
c59 0 50 -25 86 255 14 110 28 208 30 219 4 18 -7 19 -323 13 -180 -3 -316 -3
-302 -1 14 2 184 17 379 34 195 17 357 32 359 35 5 4 112 716 112 743 0 17 18
18 -550 -59z m470 -71 c5 -56 5 -57 -24 -62 -16 -3 -46 -6 -67 -6 -34 0 -39 3
-39 23 0 12 -3 39 -6 59 -6 36 -6 37 32 41 22 2 53 4 69 3 29 -1 30 -3 35 -58z
m-181 -49 l1 -36 -62 -6 c-35 -3 -64 -4 -66 -2 -2 2 -6 31 -9 64 l-6 60 64 3
c61 3 64 2 70 -22 4 -14 7 -41 8 -61z m-189 -8 l0 -58 -37 -7 c-21 -3 -50 -6
-65 -6 -26 0 -28 3 -28 44 0 24 -3 51 -6 59 -7 18 12 24 84 26 l52 1 0 -59z
m-190 -31 c0 -52 -3 -60 -19 -60 -10 0 -38 -3 -63 -6 l-45 -6 -6 58 c-7 70 -3
74 76 74 l57 0 0 -60z m-180 -19 l0 -58 -46 -7 c-87 -12 -84 -14 -84 59 l0 65
65 0 65 0 0 -59z m5 -1126 l0 -60 -65 0 -65 0 -3 49 c-5 74 -2 77 70 74 l63
-3 0 -60z m183 -7 l3 -58 -71 0 -70 0 0 60 0 61 68 -3 67 -3 3 -57z m192 2 l0
-60 -65 0 -65 0 0 60 0 60 65 0 65 0 0 -60z"/>
</g>
</svg>
